<?xml version="1.0" standalone="no"?>
<!DOCTYPE svg PUBLIC "-//W3C//DTD SVG 20010904//EN"
 "http://www.w3.org/TR/2001/REC-SVG-20010904/DTD/svg10.dtd">
<svg version="1.0" xmlns="http://www.w3.org/2000/svg"
 width="200.000000pt" height="200.000000pt" viewBox="0 0 200.000000 200.000000"
 preserveAspectRatio="xMidYMid meet">
<metadata>
Created by potrace 1.11, written by Peter Selinger 2001-2013
</metadata>
<g transform="translate(0.000000,200.000000) scale(0.100000,-0.100000)"
fill="#000000" stroke="none">
<path d="M847 1852 c-21 -23 -21 -31 -2 -51 22 -26 2 -92 -36 -113 -38 -23
-39 -56 0 -69 27 -10 28 -13 34 -90 l6 -80 -36 -32 c-115 -101 -135 -124 -163
-183 -17 -34 -30 -68 -30 -75 -1 -8 -15 -23 -33 -34 -61 -39 -62 -113 -2 -142
24 -11 35 -24 35 -38 0 -12 6 -44 14 -71 8 -27 29 -102 47 -167 l32 -118 -30
-32 c-17 -18 -36 -42 -42 -54 -7 -13 -19 -23 -29 -23 -9 0 -32 -9 -50 -20 -76
-47 -97 -151 -42 -213 27 -31 30 -42 30 -98 -1 -35 -7 -82 -15 -104 -8 -22
-15 -41 -15 -42 0 -2 34 -3 77 -3 l76 0 -7 147 c-4 80 -10 166 -13 190 l-6 44
38 -26 c65 -43 137 -59 270 -59 129 0 213 16 298 58 34 17 47 19 47 9 0 -7 -5
-13 -11 -13 -6 0 -9 -5 -7 -11 2 -6 8 -10 13 -9 14 1 22 -55 31 -203 l7 -127
33 0 c31 0 34 2 35 33 l0 32 16 -32 17 -33 78 0 c43 0 78 2 78 4 0 2 -16 37
-35 78 -19 41 -37 94 -41 116 -5 35 -3 46 19 72 81 95 6 246 -133 269 -34 6
-34 6 -46 81 -7 41 -27 134 -44 205 -52 215 -51 324 5 361 13 8 52 18 87 22
l63 7 -1 53 c-2 55 -25 125 -52 156 -38 42 -93 59 -203 64 -93 4 -209 -7 -253
-24 -10 -4 -18 14 -32 69 l-17 75 29 25 c28 25 29 25 10 46 -11 12 -27 21 -38
21 -25 0 -24 54 2 80 26 26 26 66 1 80 -28 15 -46 12 -64 -8z m30 -94 c-3 -8
-6 -5 -6 6 -1 11 2 17 5 13 3 -3 4 -12 1 -19z m2 -95 c1 -24 -3 -33 -15 -33
-13 0 -15 7 -10 31 3 17 6 43 7 58 l1 26 8 -25 c4 -14 8 -40 9 -57z m-39 -8
c0 -26 -14 -31 -39 -16 -12 8 -12 12 -2 25 20 24 41 19 41 -9z m97 8 c2 -6 -5
-17 -16 -23 -19 -10 -21 -8 -21 15 0 19 5 26 17 23 9 -2 18 -8 20 -15z m-26
-133 c27 -85 24 -100 -18 -100 -24 0 -26 7 -38 123 -6 51 -4 57 12 57 14 0 24
-19 44 -80z m401 -84 c21 -8 50 -22 65 -32 l28 -18 -55 -11 c-69 -14 -89 -25
-128 -69 -80 -92 -78 -274 5 -603 l39 -151 -70 -20 c-106 -31 -180 -42 -272
-42 -173 0 -172 -1 -234 230 -28 102 -50 196 -50 210 l0 25 193 1 c184 0 196
2 243 25 41 20 50 30 58 62 13 50 -13 86 -80 110 -41 14 -75 17 -204 14 -85
-2 -167 -9 -182 -15 -16 -6 -28 -10 -28 -8 0 2 5 18 12 37 18 55 54 104 102
143 44 36 45 37 75 22 37 -20 101 -21 144 -3 46 20 60 39 48 70 -9 23 -7 26
17 30 65 10 239 5 274 -7z m-336 -21 c-27 -20 -103 -30 -129 -16 -19 9 -15 10
23 6 29 -3 54 1 70 10 34 20 62 20 36 0z m-67 -39 c20 3 44 8 54 11 31 8 18
-15 -14 -26 -45 -16 -95 -14 -113 5 -22 22 -20 25 10 14 15 -6 43 -8 63 -4z
m139 -241 c53 -16 73 -37 71 -77 0 -15 -3 -18 -6 -8 -18 48 -71 78 -156 89
l-62 8 51 2 c28 0 74 -6 102 -14z m-178 -15 c-14 -4 -65 -8 -115 -9 -110 -1
-158 -23 -153 -69 4 -39 49 -51 194 -51 119 -1 227 13 252 32 20 16 14 45 -13
63 -14 9 -51 20 -83 25 l-57 8 62 -4 c85 -4 127 -29 131 -77 3 -29 -1 -37 -20
-43 -32 -10 -378 -19 -433 -11 -75 12 -95 51 -52 102 21 24 31 27 127 34 58 4
123 7 145 8 34 0 36 -1 15 -8z m-110 -54 c0 -8 -4 -18 -10 -21 -5 -3 -10 3
-10 14 0 12 5 21 10 21 6 0 10 -6 10 -14z m170 -1 c0 -8 -4 -15 -10 -15 -5 0
-10 7 -10 15 0 8 5 15 10 15 6 0 10 -7 10 -15z m-229 -551 c-50 -64 -12 -135
92 -171 109 -37 357 -14 454 43 57 33 73 59 73 116 0 58 25 68 35 14 12 -62
-32 -117 -126 -160 -82 -38 -157 -49 -309 -44 -146 4 -203 20 -248 69 -34 36
-30 98 8 139 36 38 52 33 21 -6z m-147 -114 c-21 -32 -25 -48 -22 -89 2 -37 0
-47 -9 -39 -35 29 -18 111 31 150 30 24 30 23 0 -22z"/>
<path d="M896 834 c-39 -8 -74 -20 -78 -26 -10 -16 -1 -93 15 -128 18 -36 56
-52 99 -40 62 18 74 45 70 163 -2 54 2 52 -106 31z m14 -86 c0 -57 -1 -61 -16
-47 -8 9 -18 34 -21 57 -4 33 -2 41 13 45 11 3 20 5 22 6 1 0 2 -27 2 -61z"/>
<path d="M1210 575 c0 -8 5 -15 10 -15 6 0 10 7 10 15 0 8 -4 15 -10 15 -5 0
-10 -7 -10 -15z"/>
<path d="M750 555 c0 -9 5 -15 11 -13 6 2 11 8 11 13 0 5 -5 11 -11 13 -6 2
-11 -4 -11 -13z"/>
<path d="M1092 549 c2 -6 8 -10 13 -10 5 0 11 4 13 10 2 6 -4 11 -13 11 -9 0
-15 -5 -13 -11z"/>
<path d="M850 525 c0 -8 7 -15 15 -15 8 0 15 7 15 15 0 8 -7 15 -15 15 -8 0
-15 -7 -15 -15z"/>
<path d="M970 525 c0 -8 5 -15 10 -15 6 0 10 7 10 15 0 8 -4 15 -10 15 -5 0
-10 -7 -10 -15z"/>
<path d="M682 309 c2 -6 8 -10 13 -10 5 0 11 4 13 10 2 6 -4 11 -13 11 -9 0
-15 -5 -13 -11z"/>
<path d="M1190 296 c0 -9 7 -16 16 -16 17 0 14 22 -4 28 -7 2 -12 -3 -12 -12z"/>
<path d="M760 275 c0 -8 5 -15 10 -15 6 0 10 7 10 15 0 8 -4 15 -10 15 -5 0
-10 -7 -10 -15z"/>
<path d="M1086 273 c-11 -11 -6 -23 9 -23 8 0 15 4 15 9 0 13 -16 22 -24 14z"/>
<path d="M852 259 c2 -6 8 -10 13 -10 5 0 11 4 13 10 2 6 -4 11 -13 11 -9 0
-15 -5 -13 -11z"/>
<path d="M966 263 c-11 -11 -6 -23 9 -23 8 0 15 4 15 9 0 13 -16 22 -24 14z"/>
</g>
</svg>
